<svg id="Layer_1" data-name="Layer 1" xmlns="http://www.w3.org/2000/svg" viewBox="0 0 908.13 908.13"><defs><style>.cls-1{fill:none;stroke:#000;stroke-miterlimit:10;stroke-width:20px;}</style></defs><path d="M908.13,454.06c0,250.78-203.29,454.07-454.07,454.07S0,704.84,0,454.06,203.29,0,454.06,0,908.13,203.29,908.13,454.06Zm-371.59-292V376.81L454.06,264,371.59,376.81V162.06H184.64V760h187l82.47-112.79L536.54,760h187V162.06Z"/><line class="cls-1" x1="454.06" y1="264.03" x2="114.65" y2="728.18"/><line class="cls-1" x1="454.06" y1="264.03" x2="793.48" y2="728.18"/><line class="cls-1" x1="454.06" y1="759.98" x2="454.06" y2="193.88"/><line class="cls-1" x1="536.54" y1="162.06" x2="536.54" y2="831.21"/><line class="cls-1" x1="630.01" y1="162.06" x2="630.01" y2="818.59"/><line class="cls-1" x1="723.49" y1="162.06" x2="723.49" y2="805.96"/><line class="cls-1" x1="370.04" y1="162.06" x2="370.04" y2="817.84"/><line class="cls-1" x1="277.34" y1="162.06" x2="277.34" y2="803.63"/><line class="cls-1" x1="184.64" y1="162.06" x2="184.64" y2="789.42"/></svg>