<?xml version="1.0" standalone="no"?>
<!DOCTYPE svg PUBLIC "-//W3C//DTD SVG 20010904//EN"
 "http://www.w3.org/TR/2001/REC-SVG-20010904/DTD/svg10.dtd">
<svg version="1.0" xmlns="http://www.w3.org/2000/svg"
 width="910.000000pt" height="910.000000pt" viewBox="0 0 910.000000 910.000000"
 preserveAspectRatio="xMidYMid meet">
<metadata>
Created by potrace 1.14, written by Peter Selinger 2001-2017
</metadata>
<g transform="translate(0.000000,910.000000) scale(0.100000,-0.100000)"
fill="#000000" stroke="none">
<path d="M4298 9095 c-2 -2 -42 -6 -89 -9 -115 -7 -254 -23 -364 -42 -49 -8
-103 -17 -120 -20 -16 -2 -50 -9 -75 -15 -51 -11 -83 -18 -120 -25 -148 -30
-437 -121 -640 -201 -497 -197 -934 -465 -1350 -828 -92 -80 -376 -373 -461
-475 -413 -495 -693 -1016 -883 -1640 -15 -47 -28 -96 -31 -109 -2 -13 -9 -38
-14 -55 -13 -42 -58 -250 -66 -306 -4 -24 -8 -47 -10 -50 -6 -10 -44 -312 -52
-415 -15 -199 -8 -719 12 -837 2 -12 6 -47 9 -77 6 -48 18 -134 32 -213 53
-316 175 -736 286 -988 259 -589 549 -1021 973 -1446 224 -225 409 -381 650
-546 118 -81 395 -251 395 -242 0 3 13 -4 29 -15 112 -80 668 -309 876 -361
17 -4 66 -18 110 -30 44 -12 91 -24 105 -26 14 -3 50 -11 80 -19 51 -12 247
-47 330 -59 254 -35 353 -41 640 -41 217 0 395 7 485 20 17 2 50 6 75 9 87 11
125 16 147 21 12 3 40 7 63 10 56 7 259 50 357 76 43 11 86 22 96 24 62 14
306 96 447 152 163 64 444 196 544 255 28 17 78 46 111 66 166 98 529 353 585
412 3 3 39 34 80 70 77 66 343 329 415 410 157 176 445 565 445 599 0 6 5 11
10 11 6 0 10 4 10 8 0 5 31 60 68 123 216 362 425 899 507 1304 13 65 46 242
51 275 3 19 7 46 10 60 2 14 6 52 10 85 3 33 7 71 9 85 13 76 20 245 20 475 0
283 -5 362 -37 605 -10 83 -12 98 -22 150 -3 14 -8 43 -11 65 -28 197 -143
600 -245 855 -81 204 -219 484 -316 642 -16 26 -48 78 -71 116 -24 39 -84 128
-134 198 -271 379 -620 736 -994 1016 -470 352 -1019 613 -1592 758 -83 21
-171 42 -194 45 -24 4 -46 8 -49 10 -3 2 -24 6 -46 9 -22 4 -49 8 -59 10 -71
14 -215 33 -310 42 -38 3 -81 8 -95 11 -28 5 -617 13 -622 8z"/>
</g>
</svg>
