<?xml version="1.0" encoding="utf-8"?>
<!-- Generator: Adobe Illustrator 25.4.1, SVG Export Plug-In . SVG Version: 6.00 Build 0)  -->
<svg version="1.1" id="Layer_1" xmlns="http://www.w3.org/2000/svg" xmlns:xlink="http://www.w3.org/1999/xlink" x="0px" y="0px"
	 viewBox="0 0 1000 1000" style="enable-background:new 0 0 1000 1000;" xml:space="preserve">
<style type="text/css">
	.st0{fill:none;stroke:#000000;stroke-width:20;stroke-miterlimit:10;}
</style>
<path d="M953.26,500c0,250.77-203.29,454.06-454.06,454.06S45.13,750.77,45.13,500S248.42,45.94,499.2,45.94
	S953.26,249.23,953.26,500z M581.67,207.99v214.76L499.2,309.96l-82.48-101.97H229.77v597.92h186.95l1.82-217.96l80.66,105.18
	l82.48,112.79h186.95V207.99H581.67z"/>
<g>
	<line class="st0" x1="415.17" y1="207.99" x2="838.61" y2="774.11"/>
	<line class="st0" x1="203.46" y1="285.77" x2="626.89" y2="851.89"/>
	<line class="st0" x1="499.2" y1="805.91" x2="499.2" y2="239.82"/>
	<g>
		<line class="st0" x1="581.67" y1="207.99" x2="581.67" y2="877.15"/>
		<line class="st0" x1="675.15" y1="207.99" x2="675.15" y2="864.52"/>
		<line class="st0" x1="768.62" y1="207.99" x2="768.62" y2="851.89"/>
	</g>
	<g>
		<line class="st0" x1="415.17" y1="207.99" x2="415.17" y2="863.78"/>
		<line class="st0" x1="322.47" y1="207.99" x2="322.47" y2="849.56"/>
		<line class="st0" x1="229.77" y1="207.99" x2="229.77" y2="835.35"/>
	</g>
</g>
</svg>
