<svg id="Layer_1" data-name="Layer 1" xmlns="http://www.w3.org/2000/svg" viewBox="0 0 708 92.67"><defs><style>.cls-1{fill:#fff;}</style></defs><path class="cls-1" d="M210.46,71.86h13V49.14c0-7.88,4.09-12.64,10.26-12.64a17.42,17.42,0,0,1,5.9,1V24.34a14.41,14.41,0,0,0-4.38-.57,12.64,12.64,0,0,0-11.78,8.17v-7.6h-13Z"/><path class="cls-1" d="M264.63,72.91c6.56,0,11.5-3.33,13.69-6.37v5.32h13V24.34h-13v5.32a17.24,17.24,0,0,0-13.69-6.37c-12.64,0-22.34,11.41-22.34,24.81s9.7,24.81,22.34,24.81M267.39,61c-7.23,0-12-5.41-12-12.92s4.75-12.93,12-12.93,12,5.42,12,12.93S274.64,61,267.39,61"/><path class="cls-1" d="M322.34,72.91c6.56,0,11.5-3.33,13.69-6.37v5.32h13V.57H336V29.66a17.24,17.24,0,0,0-13.69-6.37C309.7,23.34,300,34.7,300,48.1s9.69,24.81,22.33,24.81M325.09,61c-7.23,0-12-5.41-12-12.92s4.75-12.93,12-12.93,12,5.42,12,12.93S332.34,61,325.09,61"/><path class="cls-1" d="M367.22,16.54A8.27,8.27,0,1,0,359,8.27h0a8.31,8.31,0,0,0,8.27,8.27m-6.46,55.32h13V24.34h-13Z"/><path class="cls-1" d="M385.33,71.86h13V48.67c0-9.13,4.47-13.5,10.55-13.5,5.42,0,8.37,4.18,8.37,11V71.83h13V44c0-12.35-6.84-20.72-18.35-20.72-6.17,0-11,2.66-13.59,6.46V24.34h-13Z"/><path class="cls-1" d="M463.43,59.5A12.17,12.17,0,1,1,475.5,47.23v.11A11.88,11.88,0,0,1,463.9,59.5h-.47M461.9,92.67c14.55,0,25.57-7.41,25.57-24.52V24.34h-13v5.32c-2.56-3.71-7.7-6.37-13.78-6.37-12.45,0-22.43,10.65-22.43,24.05s10,24,22.43,24c6.08,0,11.22-2.76,13.78-6.27v3.23c0,7.6-5,13-12.74,13a20.91,20.91,0,0,1-14.84-5.91L439.76,85c5.42,5.23,13.88,7.6,22.14,7.6"/><polygon class="cls-1" points="515 71.86 527.27 71.86 555.21 4.38 540 4.38 521.18 51.23 502.08 4.38 487.16 4.38 515 71.86"/><path class="cls-1" d="M567.16,16.54a8.27,8.27,0,1,0-8.27-8.27,8.27,8.27,0,0,0,8.27,8.27m-6.47,55.32h13V24.34h-13Z"/><path class="cls-1" d="M607.42,72.91c10,0,17.58-4.19,22-10.65L619.73,55c-2.19,3.32-6.28,6-12.26,6-6.28,0-11.88-3.51-12.64-9.88h35.54a26.72,26.72,0,0,0,.2-4.47c0-15.49-10.93-23.38-23.39-23.38-14.44,0-25,10.74-25,24.81,0,15,11,24.81,25.19,24.81m-12-30.59c1.24-5.8,6.66-8.27,11.5-8.27s9.61,2.57,10.74,8.27Z"/><polygon class="cls-1" points="679.39 71.86 692.32 71.86 708 24.34 694.03 24.34 685.09 54.75 675.4 24.34 665.42 24.34 655.82 54.75 646.79 24.34 632.91 24.34 648.69 71.86 661.62 71.86 670.45 44.87 679.39 71.86"/><polygon class="cls-1" points="52.48 71.77 26.24 71.77 26.24 30.54 0 30.54 0 4.3 52.48 4.3 52.48 71.77"/><polygon class="cls-1" points="104.95 71.77 74.97 71.77 103.08 4.3 133.06 4.3 104.95 71.77"/><path class="cls-1" d="M75,4.34a15,15,0,1,1-15,15,15,15,0,0,1,15-15h0"/><polygon class="cls-1" points="178.41 71.86 192.28 71.86 192.28 17.49 210.44 17.49 210.44 4.38 160.44 4.38 160.44 17.49 178.41 17.49 178.41 71.86"/></svg>